<mxfile host="app.diagrams.net" modified="2024-03-31T10:26:51.814Z" agent="Mozilla/5.0 (Macintosh; Intel Mac OS X 10.15; rv:123.0) Gecko/20100101 Firefox/123.0" etag="7s120mmCUgq_mvtJXDJB" version="24.2.1" type="device">
  <diagram name="Page-1" id="I0KIj8xbg89OTH6qNlf6">
    <mxGraphModel dx="1911" dy="1220" grid="1" gridSize="10" guides="1" tooltips="1" connect="1" arrows="1" fold="1" page="1" pageScale="1" pageWidth="850" pageHeight="1400" math="0" shadow="0">
      <root>
        <mxCell id="0" />
        <mxCell id="1" parent="0" />
        <mxCell id="Vb18n2GkWJjofhH5KlK8-1" value="" style="whiteSpace=wrap;html=1;aspect=fixed;" vertex="1" parent="1">
          <mxGeometry x="130" y="30" width="590" height="590" as="geometry" />
        </mxCell>
        <mxCell id="Vb18n2GkWJjofhH5KlK8-14" style="rounded=0;orthogonalLoop=1;jettySize=auto;html=1;strokeWidth=5;strokeColor=#3333ff;" edge="1" parent="1" source="Vb18n2GkWJjofhH5KlK8-2" target="Vb18n2GkWJjofhH5KlK8-11">
          <mxGeometry relative="1" as="geometry" />
        </mxCell>
        <mxCell id="Vb18n2GkWJjofhH5KlK8-2" value="&lt;div align=&quot;left&quot;&gt;Hello how are you?&lt;/div&gt;&lt;div align=&quot;left&quot;&gt;I ate one apple today,&amp;nbsp;&lt;/div&gt;&lt;div align=&quot;left&quot;&gt;it had eight seeds in it&lt;br&gt;&lt;/div&gt;" style="rounded=0;whiteSpace=wrap;html=1;" vertex="1" parent="1">
          <mxGeometry x="180" y="150" width="240" height="410" as="geometry" />
        </mxCell>
        <mxCell id="Vb18n2GkWJjofhH5KlK8-3" value="&lt;div align=&quot;left&quot;&gt;Hello how are you?&lt;/div&gt;&lt;div align=&quot;left&quot;&gt;I ate 1 apple today,&amp;nbsp;&lt;/div&gt;&lt;div align=&quot;left&quot;&gt;it had 8 seeds in it&lt;br&gt;&lt;/div&gt;" style="rounded=0;whiteSpace=wrap;html=1;" vertex="1" parent="1">
          <mxGeometry x="436" y="150" width="240" height="410" as="geometry" />
        </mxCell>
        <mxCell id="Vb18n2GkWJjofhH5KlK8-4" value="Send" style="text;strokeColor=none;fillColor=none;html=1;fontSize=24;fontStyle=1;verticalAlign=middle;align=center;" vertex="1" parent="1">
          <mxGeometry x="210" y="80" width="100" height="40" as="geometry" />
        </mxCell>
        <mxCell id="Vb18n2GkWJjofhH5KlK8-5" value="Receive" style="text;strokeColor=none;fillColor=none;html=1;fontSize=24;fontStyle=1;verticalAlign=middle;align=center;" vertex="1" parent="1">
          <mxGeometry x="496" y="80" width="100" height="40" as="geometry" />
        </mxCell>
        <mxCell id="Vb18n2GkWJjofhH5KlK8-6" value="Status :" style="text;html=1;align=center;verticalAlign=middle;whiteSpace=wrap;rounded=0;" vertex="1" parent="1">
          <mxGeometry x="180" y="120" width="60" height="30" as="geometry" />
        </mxCell>
        <mxCell id="Vb18n2GkWJjofhH5KlK8-7" value="Idle/Typing/Pushing/Pushed" style="text;html=1;align=center;verticalAlign=middle;whiteSpace=wrap;rounded=0;" vertex="1" parent="1">
          <mxGeometry x="240" y="120" width="170" height="30" as="geometry" />
        </mxCell>
        <mxCell id="Vb18n2GkWJjofhH5KlK8-8" value="Status :" style="text;html=1;align=center;verticalAlign=middle;whiteSpace=wrap;rounded=0;" vertex="1" parent="1">
          <mxGeometry x="436" y="120" width="60" height="30" as="geometry" />
        </mxCell>
        <mxCell id="Vb18n2GkWJjofhH5KlK8-9" value="Listening/Refreshed" style="text;html=1;align=center;verticalAlign=middle;whiteSpace=wrap;rounded=0;" vertex="1" parent="1">
          <mxGeometry x="490" y="120" width="170" height="30" as="geometry" />
        </mxCell>
        <mxCell id="Vb18n2GkWJjofhH5KlK8-10" value="&lt;u&gt;Program demonstrating Queue &amp;amp; WS usage&lt;/u&gt;" style="text;strokeColor=none;fillColor=none;html=1;fontSize=24;fontStyle=1;verticalAlign=middle;align=center;" vertex="1" parent="1">
          <mxGeometry x="370" y="40" width="100" height="40" as="geometry" />
        </mxCell>
        <mxCell id="Vb18n2GkWJjofhH5KlK8-18" style="rounded=0;orthogonalLoop=1;jettySize=auto;html=1;entryX=0.25;entryY=0;entryDx=0;entryDy=0;strokeWidth=5;strokeColor=#3333FF;" edge="1" parent="1" source="Vb18n2GkWJjofhH5KlK8-11" target="Vb18n2GkWJjofhH5KlK8-17">
          <mxGeometry relative="1" as="geometry" />
        </mxCell>
        <mxCell id="Vb18n2GkWJjofhH5KlK8-11" value="&lt;font style=&quot;font-size: 23px;&quot;&gt;ListenerService&lt;/font&gt;" style="rounded=0;whiteSpace=wrap;html=1;" vertex="1" parent="1">
          <mxGeometry x="155" y="710" width="265" height="120" as="geometry" />
        </mxCell>
        <mxCell id="Vb18n2GkWJjofhH5KlK8-15" style="rounded=0;orthogonalLoop=1;jettySize=auto;html=1;strokeWidth=5;fillColor=#ffe6cc;strokeColor=#d79b00;" edge="1" parent="1" source="Vb18n2GkWJjofhH5KlK8-12" target="Vb18n2GkWJjofhH5KlK8-3">
          <mxGeometry relative="1" as="geometry" />
        </mxCell>
        <mxCell id="Vb18n2GkWJjofhH5KlK8-12" value="&lt;font style=&quot;font-size: 23px;&quot;&gt;SocketService&lt;/font&gt;" style="rounded=0;whiteSpace=wrap;html=1;" vertex="1" parent="1">
          <mxGeometry x="436" y="710" width="265" height="120" as="geometry" />
        </mxCell>
        <mxCell id="Vb18n2GkWJjofhH5KlK8-20" style="rounded=0;orthogonalLoop=1;jettySize=auto;html=1;entryX=0.5;entryY=1;entryDx=0;entryDy=0;exitX=0.75;exitY=0;exitDx=0;exitDy=0;strokeWidth=5;fillColor=#ffe6cc;strokeColor=#d79b00;" edge="1" parent="1" source="Vb18n2GkWJjofhH5KlK8-17" target="Vb18n2GkWJjofhH5KlK8-12">
          <mxGeometry relative="1" as="geometry" />
        </mxCell>
        <mxCell id="Vb18n2GkWJjofhH5KlK8-23" style="edgeStyle=orthogonalEdgeStyle;rounded=0;orthogonalLoop=1;jettySize=auto;html=1;entryX=0.25;entryY=0;entryDx=0;entryDy=0;exitX=0.25;exitY=1;exitDx=0;exitDy=0;strokeWidth=5;strokeColor=#3333FF;" edge="1" parent="1" source="Vb18n2GkWJjofhH5KlK8-17" target="Vb18n2GkWJjofhH5KlK8-21">
          <mxGeometry relative="1" as="geometry" />
        </mxCell>
        <mxCell id="Vb18n2GkWJjofhH5KlK8-17" value="&lt;font style=&quot;font-size: 23px;&quot;&gt;Queue&lt;/font&gt;" style="shape=process;whiteSpace=wrap;html=1;backgroundOutline=1;" vertex="1" parent="1">
          <mxGeometry x="155" y="890" width="545" height="100" as="geometry" />
        </mxCell>
        <mxCell id="Vb18n2GkWJjofhH5KlK8-24" style="edgeStyle=orthogonalEdgeStyle;rounded=0;orthogonalLoop=1;jettySize=auto;html=1;entryX=0.75;entryY=1;entryDx=0;entryDy=0;exitX=0.75;exitY=0;exitDx=0;exitDy=0;strokeWidth=5;fillColor=#ffe6cc;strokeColor=#d79b00;" edge="1" parent="1" source="Vb18n2GkWJjofhH5KlK8-21" target="Vb18n2GkWJjofhH5KlK8-17">
          <mxGeometry relative="1" as="geometry">
            <mxPoint x="490" y="1080" as="sourcePoint" />
          </mxGeometry>
        </mxCell>
        <mxCell id="Vb18n2GkWJjofhH5KlK8-21" value="&lt;font style=&quot;font-size: 23px;&quot;&gt;ParserService&lt;/font&gt;" style="rounded=0;whiteSpace=wrap;html=1;" vertex="1" parent="1">
          <mxGeometry x="293" y="1090" width="265" height="120" as="geometry" />
        </mxCell>
        <mxCell id="Vb18n2GkWJjofhH5KlK8-25" value="Any number you write in words, will be converted to equivalent value" style="text;html=1;align=center;verticalAlign=middle;whiteSpace=wrap;rounded=0;" vertex="1" parent="1">
          <mxGeometry x="200" y="580" width="440" height="30" as="geometry" />
        </mxCell>
      </root>
    </mxGraphModel>
  </diagram>
</mxfile>
